<?xml version="1.0" standalone="no"?>
<!DOCTYPE svg PUBLIC "-//W3C//DTD SVG 20010904//EN"
 "http://www.w3.org/TR/2001/REC-SVG-20010904/DTD/svg10.dtd">
<svg version="1.0" xmlns="http://www.w3.org/2000/svg"
 width="269.000000pt" height="269.000000pt" viewBox="0 0 269.000000 269.000000"
 preserveAspectRatio="xMidYMid meet">
<metadata>
Created by potrace 1.14, written by Peter Selinger 2001-2017
</metadata>
<g transform="translate(0.000000,269.000000) scale(0.100000,-0.100000)"
fill="#000000" stroke="none">
<path d="M1175 2679 c-161 -24 -286 -63 -429 -137 -377 -193 -645 -582 -692
-1002 -12 -107 -7 -330 8 -380 3 -8 15 -58 28 -110 13 -52 26 -99 30 -105 9
-13 34 -89 31 -94 -2 -2 2 -7 7 -10 16 -10 62 -108 54 -116 -4 -5 -1 -5 6 -1
10 6 17 -5 10 -19 -2 -2 7 -12 20 -20 12 -9 22 -22 22 -29 0 -8 7 -19 15 -26
8 -7 12 -17 8 -24 -3 -6 -3 -8 2 -4 7 7 35 -14 35 -27 0 -4 7 -13 15 -22 8 -8
12 -19 9 -25 -4 -6 -3 -8 3 -5 10 6 105 -87 97 -97 -2 -3 -1 -4 2 -1 11 7 65
-36 58 -46 -3 -5 -2 -8 3 -7 11 3 93 -53 93 -64 0 -5 4 -7 8 -4 4 2 19 -5 32
-16 14 -11 19 -16 11 -12 -9 5 -12 3 -7 -5 4 -6 11 -9 16 -6 13 8 52 -14 45
-25 -3 -6 1 -7 9 -4 9 3 16 1 16 -5 0 -6 7 -8 15 -5 10 4 15 0 16 -12 0 -11 3
-14 5 -7 4 7 24 3 64 -14 33 -15 57 -30 55 -34 -3 -4 0 -11 6 -15 8 -4 9 -3 5
4 -5 8 1 12 14 12 13 0 19 -4 14 -11 -4 -8 0 -9 15 -4 16 5 21 2 22 -12 0 -10
3 -13 6 -5 7 18 30 15 42 -5 6 -10 11 -13 11 -7 0 8 14 8 51 1 33 -7 46 -13
37 -18 -9 -6 -9 -9 -1 -9 6 0 15 5 18 10 9 14 27 1 19 -13 -5 -8 -3 -8 7 0 18
17 63 17 53 1 -6 -10 -4 -10 7 -2 15 13 82 7 74 -6 -3 -5 -1 -12 5 -15 6 -4 9
-1 8 7 -2 10 14 13 65 13 38 0 67 4 67 10 0 6 5 3 10 -5 5 -8 10 -10 10 -3 0
7 18 11 49 10 27 -1 47 1 44 6 -5 9 27 4 44 -6 9 -5 11 -3 7 6 -4 10 6 16 36
21 22 3 72 17 110 30 47 15 71 19 74 12 2 -6 5 -3 5 7 1 10 5 16 10 12 5 -3
13 0 16 6 4 5 14 8 22 5 8 -3 11 -2 8 3 -5 9 32 27 48 23 4 -1 7 3 7 9 0 5 5
7 10 4 6 -3 10 -3 10 2 0 4 24 21 53 37 28 16 69 42 90 59 20 16 44 30 52 31
8 1 18 6 22 11 4 4 1 5 -7 0 -8 -4 -5 2 8 14 12 12 27 19 32 16 6 -4 7 1 3 12
-3 10 -3 15 1 11 5 -4 24 11 44 32 19 22 40 36 45 33 6 -3 7 -1 4 4 -4 6 6 24
21 40 15 16 36 41 47 57 11 15 26 34 33 42 7 8 10 14 5 14 -4 0 3 7 15 16 12
8 20 19 18 23 -3 4 3 17 14 28 10 12 16 24 13 27 -4 3 -1 6 5 6 7 0 11 3 10 8
-2 11 42 102 50 102 4 0 8 12 9 27 0 15 6 29 12 31 6 2 11 15 11 28 0 13 4 24
9 24 6 0 8 9 6 20 -2 11 0 20 4 20 4 0 8 6 8 13 0 7 7 44 16 82 9 39 19 88 22
110 12 80 10 252 -2 335 -7 47 -15 99 -17 115 -3 17 -18 71 -34 120 -110 334
-339 604 -647 761 -92 47 -236 100 -295 110 -14 2 -47 9 -75 15 -60 14 -319
19 -390 8z"/>
<path d="M396 457 c3 -10 9 -15 12 -12 3 3 0 11 -7 18 -10 9 -11 8 -5 -6z"/>
<path d="M2095 310 c-3 -5 -1 -10 4 -10 6 0 11 5 11 10 0 6 -2 10 -4 10 -3 0
-8 -4 -11 -10z"/>
<path d="M838 173 c7 -3 16 -2 19 1 4 3 -2 6 -13 5 -11 0 -14 -3 -6 -6z"/>
<path d="M1660 110 c-9 -6 -10 -10 -3 -10 6 0 15 5 18 10 8 12 4 12 -15 0z"/>
<path d="M1250 69 c0 -5 5 -7 10 -4 6 3 10 8 10 11 0 2 -4 4 -10 4 -5 0 -10
-5 -10 -11z"/>
<path d="M1347 69 c7 -7 15 -10 18 -7 3 3 -2 9 -12 12 -14 6 -15 5 -6 -5z"/>
<path d="M1475 70 c3 -5 8 -10 11 -10 2 0 4 5 4 10 0 6 -5 10 -11 10 -5 0 -7
-4 -4 -10z"/>
</g>
</svg>
